<svg width="52" height="52" viewBox="0 0 52 52" fill="none" xmlns="http://www.w3.org/2000/svg">
<path d="M15.7746 39.2882C16.7646 40.0332 18.3362 40.5799 20.75 40.1833V43.1158C20.75 43.2776 20.6989 43.4007 20.6313 43.4657C20.5838 43.5114 20.4554 43.5993 20.1176 43.5434C12.7829 41.0864 7.5 34.1603 7.5 26C7.5 15.7834 15.7849 7.5 26 7.5C36.2166 7.5 44.5 15.7834 44.5 26C44.5 34.1581 39.2222 41.0831 31.8928 43.5426C31.5438 43.6039 31.4144 43.5143 31.3684 43.4702C31.3018 43.4064 31.25 43.2827 31.25 43.1158V37.9019C31.25 36.5552 30.9121 35.5053 30.4244 34.7592C32.287 34.4717 34.1863 33.9002 35.6919 32.6399C37.4719 31.1499 38.622 28.767 38.622 25.0088C38.622 22.9224 37.9173 21.1842 36.7383 19.8008C37.0067 18.9832 37.3958 17.104 36.4448 14.6965L36.3578 14.4763L36.1322 14.404L35.9797 14.8803C36.1322 14.404 36.1317 14.4039 36.1312 14.4037L36.1302 14.4034L36.128 14.4027L36.1233 14.4013L36.112 14.398C36.1037 14.3956 36.0937 14.3929 36.0821 14.39C36.0589 14.3842 36.0293 14.3776 35.993 14.3711C35.9205 14.358 35.8221 14.3452 35.697 14.3395C35.4464 14.3281 35.0916 14.3452 34.6267 14.4433C33.7298 14.6325 32.4272 15.1223 30.6702 16.2858C29.1704 15.892 27.5797 15.6958 26.0025 15.6881L25.9975 15.6881C24.4204 15.6958 22.8312 15.892 21.3343 16.2857C19.5757 15.1222 18.2716 14.6325 17.3736 14.4432C16.9081 14.3452 16.5528 14.3281 16.302 14.3395C16.1768 14.3452 16.0782 14.358 16.0057 14.3711C15.9694 14.3776 15.9397 14.3842 15.9166 14.39C15.905 14.3929 15.895 14.3955 15.8867 14.3979L15.8754 14.4012L15.8706 14.4027L15.8685 14.4033L15.8675 14.4037C15.867 14.4038 15.8665 14.404 16.0187 14.8803L15.8665 14.404L15.6406 14.4761L15.5536 14.6967C14.6034 17.1041 14.9937 18.9837 15.262 19.8012C14.0875 21.1834 13.3764 22.9198 13.3764 25.0088C13.3764 28.7577 14.5246 31.1406 16.3001 32.6351C17.8043 33.9012 19.7025 34.4799 21.5633 34.7732C21.2542 35.2539 21.0101 35.8596 20.8765 36.5858C20.3588 36.7887 19.6132 36.9927 18.8346 36.9232C17.9579 36.8449 16.9941 36.4181 16.231 35.1123L16.2292 35.1091L16.2172 35.0882C16.2071 35.071 16.193 35.0473 16.1748 35.0181C16.1386 34.9597 16.0859 34.8788 16.017 34.7824C15.8796 34.5904 15.6752 34.3337 15.4041 34.0717C14.8653 33.551 14.0324 32.9808 12.92 32.9033L12.9061 32.9023L12.8921 32.9021L12.8853 33.4021C12.8921 32.9021 12.8919 32.9021 12.8917 32.9021L12.8914 32.9021L12.8905 32.9021L12.8882 32.9021L12.8817 32.9021L12.8609 32.9021C12.8439 32.9022 12.8204 32.9026 12.7919 32.9036C12.7353 32.9055 12.6567 32.9098 12.568 32.9195C12.4103 32.9367 12.1446 32.9779 11.926 33.1021C11.8113 33.1673 11.6631 33.2814 11.5796 33.4724C11.4892 33.6791 11.5104 33.8917 11.5858 34.0716C11.7156 34.3815 12.0363 34.6713 12.4715 34.969L12.5049 34.9919L12.5378 35.0073C12.5381 35.0074 12.5385 35.0076 12.5389 35.0078C12.5425 35.0097 12.5505 35.0139 12.5626 35.0207C12.5866 35.0344 12.6268 35.0584 12.6799 35.0947C12.7861 35.1673 12.9445 35.2892 13.131 35.4761C13.5013 35.8474 13.989 36.4817 14.3952 37.5097L14.396 37.5122C14.3997 37.5225 14.4045 37.536 14.4108 37.5524C14.4233 37.5852 14.4412 37.6297 14.4655 37.684C14.5139 37.7925 14.5878 37.9406 14.6938 38.1118C14.9057 38.4541 15.2481 38.892 15.7746 39.2882Z" fill="#8AE76D" stroke="black"/>
</svg>
