<svg xmlns="http://www.w3.org/2000/svg" width="2119.658" height="2316.082" viewBox="0 0 2119.658 2316.082">
  <path id="Path_74" data-name="Path 74" d="M1153.62,872.944c-498.512,39.919-365.186,549.588-365.186,549.588C336.354,1199.718,478.786,775.376,478.786,775.376,802.906-76.806,1483.832,555.939,1483.832,555.939l181.146-191.216C1459.771,161.868,1075.65,75.7,1069.922,74.431a1.321,1.321,0,0,0-.482-.061C324.474,14.551,184.152,757.105,184.152,757.105-.07,1518.593,885.158,1728.2,885.158,1728.2L990.685,1947.76l222.452-97.448-58.372-135.256c246.151-63.92,359.941-274.674,359.941-274.674C1732.455,911.9,1153.62,872.944,1153.62,872.944Zm106.432,461.729c-108.059,158.232-195.919,136.644-195.919,136.644-81.408-280.7,51.678-322.734,118.191-325.327,41.608-1.628,78.151,26.955,91.116,66.513,5.669,17.246,6.813,34.734,6.272,49.266C1278.988,1280.823,1276.455,1310.734,1260.052,1334.673Z" transform="matrix(0.921, -0.391, 0.391, 0.921, -174.012, 585.257)" fill="#fff"/>
</svg>
