<svg width="52" height="52" viewBox="0 0 52 52" fill="none" xmlns="http://www.w3.org/2000/svg">
<mask id="path-1-inside-1_80_283" fill="white">
<path fill-rule="evenodd" clip-rule="evenodd" d="M12 7C9.23858 7 7 9.23858 7 12V40C7 42.7614 9.23858 45 12 45H40C42.7614 45 45 42.7614 45 40V12C45 9.23858 42.7614 7 40 7H12ZM14.6607 21.138V36.6835H19.6098V21.138H14.6607ZM15.3489 18.6382C15.8482 19.097 16.4453 19.3264 17.1403 19.3264C17.842 19.3264 18.4391 19.097 18.9317 18.6382C19.431 18.1726 19.6806 17.6126 19.6806 16.9581C19.6806 16.3104 19.431 15.7571 18.9317 15.2983C18.4391 14.8328 17.842 14.6 17.1403 14.6C16.4453 14.6 15.8482 14.8328 15.3489 15.2983C14.8496 15.7571 14.6 16.3104 14.6 16.9581C14.6 17.6126 14.8496 18.1726 15.3489 18.6382ZM27.7089 36.6835V27.8177C27.7156 27.2239 27.8236 26.7179 28.0328 26.2996C28.2487 25.8813 28.5523 25.5608 28.9436 25.3381C29.3417 25.1087 29.8005 24.994 30.32 24.994C31.1027 24.994 31.7133 25.2369 32.1519 25.7227C32.5972 26.2085 32.8165 26.8832 32.8097 27.7468V36.6835H37.7588V26.7752C37.7655 25.608 37.5429 24.5892 37.0908 23.7188C36.6455 22.8417 36.018 22.1602 35.2084 21.6744C34.4054 21.1819 33.4575 20.9356 32.3644 20.9356C31.2174 20.9356 30.229 21.2088 29.399 21.7554C28.5691 22.2951 27.9821 23.0407 27.638 23.992H27.466V21.138H22.7598V36.6835H27.7089Z"/>
</mask>
<path fill-rule="evenodd" clip-rule="evenodd" d="M12 7C9.23858 7 7 9.23858 7 12V40C7 42.7614 9.23858 45 12 45H40C42.7614 45 45 42.7614 45 40V12C45 9.23858 42.7614 7 40 7H12ZM14.6607 21.138V36.6835H19.6098V21.138H14.6607ZM15.3489 18.6382C15.8482 19.097 16.4453 19.3264 17.1403 19.3264C17.842 19.3264 18.4391 19.097 18.9317 18.6382C19.431 18.1726 19.6806 17.6126 19.6806 16.9581C19.6806 16.3104 19.431 15.7571 18.9317 15.2983C18.4391 14.8328 17.842 14.6 17.1403 14.6C16.4453 14.6 15.8482 14.8328 15.3489 15.2983C14.8496 15.7571 14.6 16.3104 14.6 16.9581C14.6 17.6126 14.8496 18.1726 15.3489 18.6382ZM27.7089 36.6835V27.8177C27.7156 27.2239 27.8236 26.7179 28.0328 26.2996C28.2487 25.8813 28.5523 25.5608 28.9436 25.3381C29.3417 25.1087 29.8005 24.994 30.32 24.994C31.1027 24.994 31.7133 25.2369 32.1519 25.7227C32.5972 26.2085 32.8165 26.8832 32.8097 27.7468V36.6835H37.7588V26.7752C37.7655 25.608 37.5429 24.5892 37.0908 23.7188C36.6455 22.8417 36.018 22.1602 35.2084 21.6744C34.4054 21.1819 33.4575 20.9356 32.3644 20.9356C31.2174 20.9356 30.229 21.2088 29.399 21.7554C28.5691 22.2951 27.9821 23.0407 27.638 23.992H27.466V21.138H22.7598V36.6835H27.7089Z" fill="#B0C6F6"/>
<path d="M14.6607 36.6835H13.6607V37.6835H14.6607V36.6835ZM14.6607 21.138V20.138H13.6607V21.138H14.6607ZM19.6098 36.6835V37.6835H20.6098V36.6835H19.6098ZM19.6098 21.138H20.6098V20.138H19.6098V21.138ZM15.3489 18.6382L14.6669 19.3696L14.6723 19.3745L15.3489 18.6382ZM18.9317 18.6382L19.6133 19.3699L19.6136 19.3696L18.9317 18.6382ZM18.9317 15.2983L18.2447 16.0251L18.2551 16.0347L18.9317 15.2983ZM15.3489 15.2983L16.0256 16.0347L16.0309 16.0297L15.3489 15.2983ZM27.7089 27.8177L26.7089 27.8063V27.8177H27.7089ZM27.7089 36.6835V37.6835H28.7089V36.6835H27.7089ZM28.0328 26.2996L27.1441 25.8409L27.1383 25.8524L28.0328 26.2996ZM28.9436 25.3381L29.4381 26.2073L29.4429 26.2045L28.9436 25.3381ZM32.1519 25.7227L31.4096 26.3928L31.4147 26.3984L32.1519 25.7227ZM32.8097 27.7468L31.8097 27.739V27.7468H32.8097ZM32.8097 36.6835H31.8097V37.6835H32.8097V36.6835ZM37.7588 36.6835V37.6835H38.7588V36.6835H37.7588ZM37.7588 26.7752L36.7588 26.7695V26.7752H37.7588ZM37.0908 23.7188L36.1991 24.1715L36.2034 24.1797L37.0908 23.7188ZM35.2084 21.6744L34.6854 22.5268L34.6939 22.5319L35.2084 21.6744ZM29.399 21.7554L29.9443 22.5937L29.949 22.5905L29.399 21.7554ZM27.638 23.992V24.992H28.3397L28.5784 24.3322L27.638 23.992ZM27.466 23.992H26.466V24.992H27.466V23.992ZM27.466 21.138H28.466V20.138H27.466V21.138ZM22.7598 21.138V20.138H21.7598V21.138H22.7598ZM22.7598 36.6835H21.7598V37.6835H22.7598V36.6835ZM8 12C8 9.79086 9.79086 8 12 8V6C8.68629 6 6 8.68629 6 12H8ZM8 40V12H6V40H8ZM12 44C9.79086 44 8 42.2091 8 40H6C6 43.3137 8.68629 46 12 46V44ZM40 44H12V46H40V44ZM44 40C44 42.2091 42.2091 44 40 44V46C43.3137 46 46 43.3137 46 40H44ZM44 12V40H46V12H44ZM40 8C42.2091 8 44 9.79086 44 12H46C46 8.68629 43.3137 6 40 6V8ZM12 8H40V6H12V8ZM15.6607 36.6835V21.138H13.6607V36.6835H15.6607ZM19.6098 35.6835H14.6607V37.6835H19.6098V35.6835ZM18.6098 21.138V36.6835H20.6098V21.138H18.6098ZM14.6607 22.138H19.6098V20.138H14.6607V22.138ZM17.1403 18.3264C16.6891 18.3264 16.3353 18.1865 16.0256 17.9018L14.6723 19.3745C15.3611 20.0075 16.2016 20.3264 17.1403 20.3264V18.3264ZM18.2501 17.9065C17.9511 18.1849 17.6009 18.3264 17.1403 18.3264V20.3264C18.0831 20.3264 18.9272 20.009 19.6133 19.3699L18.2501 17.9065ZM18.6806 16.9581C18.6806 17.3221 18.556 17.6212 18.2497 17.9068L19.6136 19.3696C20.3059 18.724 20.6806 17.9031 20.6806 16.9581H18.6806ZM18.2551 16.0347C18.5592 16.3141 18.6806 16.6048 18.6806 16.9581H20.6806C20.6806 16.0161 20.3028 15.2002 19.6083 14.562L18.2551 16.0347ZM17.1403 15.6C17.5965 15.6 17.945 15.7418 18.2448 16.0251L19.6186 14.5716C18.9332 13.9238 18.0875 13.6 17.1403 13.6V15.6ZM16.0309 16.0297C16.3414 15.7402 16.6934 15.6 17.1403 15.6V13.6C16.1973 13.6 15.3551 13.9254 14.667 14.5669L16.0309 16.0297ZM15.6 16.9581C15.6 16.6048 15.7215 16.3141 16.0256 16.0347L14.6723 14.562C13.9778 15.2002 13.6 16.0161 13.6 16.9581H15.6ZM16.0309 17.9068C15.7246 17.6212 15.6 17.3221 15.6 16.9581H13.6C13.6 17.9031 13.9747 18.724 14.667 19.3696L16.0309 17.9068ZM26.7089 27.8177V36.6835H28.7089V27.8177H26.7089ZM27.1383 25.8524C26.8457 26.4376 26.717 27.1008 26.709 27.8063L28.7088 27.829C28.7143 27.3471 28.8015 26.9982 28.9272 26.7468L27.1383 25.8524ZM28.4491 24.4689C27.8815 24.7919 27.4446 25.2588 27.1441 25.8409L28.9214 26.7582C29.0527 26.5038 29.2231 26.3296 29.4381 26.2073L28.4491 24.4689ZM30.32 23.994C29.6486 23.994 29.0133 24.1438 28.4443 24.4717L29.4429 26.2045C29.6701 26.0736 29.9524 25.994 30.32 25.994V23.994ZM32.8942 25.0526C32.229 24.3158 31.3253 23.994 30.32 23.994V25.994C30.8801 25.994 31.1977 26.158 31.4096 26.3928L32.8942 25.0526ZM33.8097 27.7547C33.8178 26.7189 33.5529 25.7712 32.889 25.047L31.4147 26.3984C31.6415 26.6458 31.8152 27.0475 31.8098 27.739L33.8097 27.7547ZM33.8097 36.6835V27.7468H31.8097V36.6835H33.8097ZM37.7588 35.6835H32.8097V37.6835H37.7588V35.6835ZM36.7588 26.7752V36.6835H38.7588V26.7752H36.7588ZM36.2034 24.1797C36.5676 24.8809 36.7648 25.7338 36.7588 26.7695L38.7588 26.781C38.7663 25.4821 38.5182 24.2974 37.9783 23.2579L36.2034 24.1797ZM34.6939 22.5319C35.3353 22.9167 35.8352 23.4547 36.1991 24.1715L37.9825 23.2661C37.4558 22.2286 36.7007 21.4036 35.7229 20.8169L34.6939 22.5319ZM32.3644 21.9356C33.303 21.9356 34.0637 22.1454 34.6855 22.5268L35.7313 20.822C34.7472 20.2183 33.6119 19.9356 32.3644 19.9356V21.9356ZM29.949 22.5905C30.5916 22.1674 31.382 21.9356 32.3644 21.9356V19.9356C31.0528 19.9356 29.8663 20.2503 28.8491 20.9202L29.949 22.5905ZM28.5784 24.3322C28.8503 23.5806 29.301 23.012 29.9443 22.5937L28.8538 20.9171C27.8373 21.5783 27.114 22.5008 26.6977 23.6519L28.5784 24.3322ZM27.466 24.992H27.638V22.992H27.466V24.992ZM26.466 21.138V23.992H28.466V21.138H26.466ZM22.7598 22.138H27.466V20.138H22.7598V22.138ZM23.7598 36.6835V21.138H21.7598V36.6835H23.7598ZM27.7089 35.6835H22.7598V37.6835H27.7089V35.6835Z" fill="black" mask="url(#path-1-inside-1_80_283)"/>
</svg>
