<svg width="52" height="52" viewBox="0 0 52 52" fill="none" xmlns="http://www.w3.org/2000/svg">
<mask id="path-1-inside-1_80_281" fill="white">
<path fill-rule="evenodd" clip-rule="evenodd" d="M7.795 12.8201C8.30402 12.295 8.99441 12 9.71429 12H42.2857C43.0056 12 43.696 12.295 44.205 12.8201C44.714 13.3452 45 14.0574 45 14.8V15.4076L26 27.1676L7 15.4076V14.8C7 14.0574 7.28597 13.3452 7.795 12.8201ZM32.2211 26.5824L45 18.6724V34.694L32.2211 26.5824ZM29.5991 28.2064L44.9077 37.9252C44.753 38.5205 44.4121 39.0465 43.9381 39.4217C43.464 39.7968 42.8832 40.0001 42.2857 40H9.71429C9.11645 39.9999 8.53537 39.7962 8.06126 39.4205C7.58715 39.0449 7.24653 38.5182 7.09229 37.9224L22.4009 28.2064L26 30.4324L29.5991 28.2064ZM19.7789 26.5824L7 34.694V18.6724L19.7789 26.5824Z"/>
</mask>
<path fill-rule="evenodd" clip-rule="evenodd" d="M7.795 12.8201C8.30402 12.295 8.99441 12 9.71429 12H42.2857C43.0056 12 43.696 12.295 44.205 12.8201C44.714 13.3452 45 14.0574 45 14.8V15.4076L26 27.1676L7 15.4076V14.8C7 14.0574 7.28597 13.3452 7.795 12.8201ZM32.2211 26.5824L45 18.6724V34.694L32.2211 26.5824ZM29.5991 28.2064L44.9077 37.9252C44.753 38.5205 44.4121 39.0465 43.9381 39.4217C43.464 39.7968 42.8832 40.0001 42.2857 40H9.71429C9.11645 39.9999 8.53537 39.7962 8.06126 39.4205C7.58715 39.0449 7.24653 38.5182 7.09229 37.9224L22.4009 28.2064L26 30.4324L29.5991 28.2064ZM19.7789 26.5824L7 34.694V18.6724L19.7789 26.5824Z" fill="#E682EB"/>
<path d="M7.795 12.8201L7.07698 12.1241L7.07698 12.1241L7.795 12.8201ZM44.205 12.8201L43.487 13.5161L43.487 13.5161L44.205 12.8201ZM45 15.4076L45.5263 16.2579L46 15.9647V15.4076H45ZM26 27.1676L25.4737 28.0179L26 28.3437L26.5263 28.0179L26 27.1676ZM7 15.4076H6V15.9647L6.47371 16.2579L7 15.4076ZM45 18.6724H46V16.8773L44.4737 17.8221L45 18.6724ZM32.2211 26.5824L31.6948 25.7321L30.3384 26.5717L31.6852 27.4267L32.2211 26.5824ZM45 34.694L44.4641 35.5383L46 36.5132V34.694H45ZM44.9077 37.9252L45.8755 38.1768L46.0589 37.4715L45.4437 37.081L44.9077 37.9252ZM29.5991 28.2064L30.1351 27.3622L29.6061 27.0263L29.0731 27.3559L29.5991 28.2064ZM43.9381 39.4217L43.3175 38.6375L43.3175 38.6375L43.9381 39.4217ZM42.2857 40L42.2858 39H42.2857V40ZM9.71429 40L9.71414 41H9.71429V40ZM7.09229 37.9224L6.55642 37.0781L5.94175 37.4682L6.1242 38.173L7.09229 37.9224ZM22.4009 28.2064L22.9269 27.3559L22.394 27.0264L21.865 27.3621L22.4009 28.2064ZM26 30.4324L25.474 31.2829L26 31.6082L26.526 31.2829L26 30.4324ZM7 34.694H6V36.5132L7.53592 35.5383L7 34.694ZM19.7789 26.5824L20.3148 27.4267L21.6616 26.5717L20.3052 25.7321L19.7789 26.5824ZM7 18.6724L7.52632 17.8221L6 16.8773V18.6724H7ZM9.71429 11C8.71899 11 7.77098 11.4082 7.07698 12.1241L8.51301 13.5161C8.83706 13.1818 9.26984 13 9.71429 13V11ZM42.2857 11H9.71429V13H42.2857V11ZM44.923 12.1241C44.229 11.4082 43.281 11 42.2857 11V13C42.7302 13 43.1629 13.1818 43.487 13.5161L44.923 12.1241ZM46 14.8C46 13.802 45.616 12.8389 44.923 12.1241L43.487 13.5161C43.8121 13.8515 44 14.3128 44 14.8H46ZM46 15.4076V14.8H44V15.4076H46ZM26.5263 28.0179L45.5263 16.2579L44.4737 14.5573L25.4737 26.3173L26.5263 28.0179ZM6.47371 16.2579L25.4737 28.0179L26.5263 26.3173L7.52629 14.5573L6.47371 16.2579ZM6 14.8V15.4076H8V14.8H6ZM7.07698 12.1241C6.38401 12.8389 6 13.802 6 14.8H8C8 14.3128 8.18793 13.8515 8.51301 13.5161L7.07698 12.1241ZM44.4737 17.8221L31.6948 25.7321L32.7475 27.4327L45.5263 19.5227L44.4737 17.8221ZM46 34.694V18.6724H44V34.694H46ZM31.6852 27.4267L44.4641 35.5383L45.5359 33.8497L32.7571 25.7381L31.6852 27.4267ZM45.4437 37.081L30.1351 27.3622L29.0632 29.0506L44.3717 38.7694L45.4437 37.081ZM44.5586 40.2058C45.2065 39.6932 45.6671 38.9787 45.8755 38.1768L43.9399 37.6736C43.8388 38.0623 43.6178 38.3999 43.3175 38.6375L44.5586 40.2058ZM42.2856 41C43.1112 41.0001 43.9101 40.719 44.5586 40.2058L43.3175 38.6375C43.0179 38.8746 42.6552 39 42.2858 39L42.2856 41ZM9.71429 41H42.2857V39H9.71429V41ZM7.44022 40.2043C8.08873 40.7182 8.888 40.9999 9.71414 41L9.71444 39C9.3449 38.9999 8.98201 38.8742 8.6823 38.6368L7.44022 40.2043ZM6.1242 38.173C6.33197 38.9756 6.79228 39.6909 7.44022 40.2043L8.6823 38.6368C8.38201 38.3988 8.16108 38.0608 8.06038 37.6718L6.1242 38.173ZM21.865 27.3621L6.55642 37.0781L7.62815 38.7667L22.9367 29.0507L21.865 27.3621ZM26.526 29.5819L22.9269 27.3559L21.8749 29.0569L25.474 31.2829L26.526 29.5819ZM29.0731 27.3559L25.474 29.5819L26.526 31.2829L30.1251 29.0569L29.0731 27.3559ZM7.53592 35.5383L20.3148 27.4267L19.2429 25.7381L6.46408 33.8497L7.53592 35.5383ZM6 18.6724V34.694H8V18.6724H6ZM20.3052 25.7321L7.52632 17.8221L6.47368 19.5227L19.2525 27.4327L20.3052 25.7321Z" fill="black" mask="url(#path-1-inside-1_80_281)"/>
</svg>
