<svg id="Layer_1" data-name="Layer 1" xmlns="http://www.w3.org/2000/svg" width="96" height="93.6" viewBox="0 0 96 93.6"><defs><style>.cls-1{fill:#ff3f94;}.cls-2{fill:#2e0013;}.cls-3{fill:#fff;}.cls-4{opacity:0.15;}</style></defs><rect class="cls-1" width="96" height="93.6" rx="17.6"/><rect class="cls-2" x="4" y="4" width="88" height="85.6" rx="14.4"/><path class="cls-3" d="M68,60V22.56c0-.16,0-.32-.32-.32H61.12a.34.34,0,0,0-.32.32V33.12H58.72c-10.08,0-16.48,7.52-16.48,17,0,11.2,6.4,16.64,15.2,16.64A25.91,25.91,0,0,0,68,64.32c.32-.16.32-.16.32-.48A17,17,0,0,1,68,60Zm-7.36,0a8.3,8.3,0,0,1-2.88.48c-4.64,0-8.32-3-8.32-10.56,0-6.56,3.68-10.56,8.8-10.56a9.7,9.7,0,0,1,2.4.32ZM34.56,22.24H28.32a.42.42,0,0,0-.48.35.29.29,0,0,0,0,.13V65.6a.42.42,0,0,0,.35.48.29.29,0,0,0,.13,0H34.4c.48,0,.48-.16.48-.48V22.72C35,22.4,35,22.24,34.56,22.24Z"/><g class="cls-4"><path class="cls-1" d="M68,60V22.56c0-.16,0-.32-.32-.32H61.12a.34.34,0,0,0-.32.32V33.12H58.72c-10.08,0-16.48,7.52-16.48,17,0,11.2,6.4,16.64,15.2,16.64A25.91,25.91,0,0,0,68,64.32c.32-.16.32-.16.32-.48A17,17,0,0,1,68,60Zm-7.36,0a8.3,8.3,0,0,1-2.88.48c-4.64,0-8.32-3-8.32-10.56,0-6.56,3.68-10.56,8.8-10.56a9.7,9.7,0,0,1,2.4.32ZM34.56,22.24H28.32a.42.42,0,0,0-.48.35.29.29,0,0,0,0,.13V65.6a.42.42,0,0,0,.35.48.29.29,0,0,0,.13,0H34.4c.48,0,.48-.16.48-.48V22.72C35,22.4,35,22.24,34.56,22.24Z"/></g></svg>